<svg width="35" height="35" viewBox="0 0 35 35" fill="none" xmlns="http://www.w3.org/2000/svg">
<path d="M29.2253 9.94628L20.8253 4.0692C18.5357 2.46503 15.0211 2.55253 12.819 4.25878L5.51276 9.96086C4.05443 11.0984 2.90234 13.4317 2.90234 15.2692V25.3317C2.90234 29.0504 5.92109 32.0838 9.63984 32.0838H25.3607C29.0794 32.0838 32.0982 29.065 32.0982 25.3463V15.4588C32.0982 13.49 30.8294 11.0692 29.2253 9.94628ZM18.594 26.2504C18.594 26.8484 18.0982 27.3442 17.5003 27.3442C16.9023 27.3442 16.4065 26.8484 16.4065 26.2504V21.8754C16.4065 21.2775 16.9023 20.7817 17.5003 20.7817C18.0982 20.7817 18.594 21.2775 18.594 21.8754V26.2504Z" fill="#1ABC9C"/>
</svg>
