<svg width="35" height="35" viewBox="0 0 35 35" fill="none" xmlns="http://www.w3.org/2000/svg">
<path d="M24.4271 5.1915V2.9165C24.4271 2.31859 23.9313 1.82275 23.3333 1.82275C22.7354 1.82275 22.2396 2.31859 22.2396 2.9165V5.104H12.7604V2.9165C12.7604 2.31859 12.2646 1.82275 11.6667 1.82275C11.0688 1.82275 10.5729 2.31859 10.5729 2.9165V5.1915C6.63543 5.55609 4.72501 7.904 4.43334 11.3894C4.40418 11.8123 4.75418 12.1623 5.16251 12.1623H29.8375C30.2604 12.1623 30.6104 11.7978 30.5667 11.3894C30.275 7.904 28.3646 5.55609 24.4271 5.1915Z" fill="#1ABC9C"/>
<path d="M29.1667 14.3501H5.83333C5.03125 14.3501 4.375 15.0063 4.375 15.8084V24.7918C4.375 29.1668 6.5625 32.0834 11.6667 32.0834H23.3333C28.4375 32.0834 30.625 29.1668 30.625 24.7918V15.8084C30.625 15.0063 29.9688 14.3501 29.1667 14.3501ZM13.4313 26.5563C13.3583 26.6147 13.2854 26.6876 13.2125 26.7313C13.125 26.7897 13.0375 26.8334 12.95 26.8626C12.8625 26.9063 12.775 26.9355 12.6875 26.9501C12.5854 26.9647 12.4979 26.9793 12.3958 26.9793C12.2063 26.9793 12.0167 26.9355 11.8417 26.8626C11.6521 26.7897 11.5062 26.6876 11.3604 26.5563C11.0979 26.2793 10.9375 25.9001 10.9375 25.5209C10.9375 25.1418 11.0979 24.7626 11.3604 24.4855C11.5062 24.3543 11.6521 24.2522 11.8417 24.1793C12.1042 24.0626 12.3958 24.0334 12.6875 24.0918C12.775 24.1063 12.8625 24.1355 12.95 24.1793C13.0375 24.2084 13.125 24.2522 13.2125 24.3105C13.2854 24.3688 13.3583 24.4272 13.4313 24.4855C13.6938 24.7626 13.8542 25.1418 13.8542 25.5209C13.8542 25.9001 13.6938 26.2793 13.4313 26.5563ZM13.4313 21.4522C13.1542 21.7147 12.775 21.8751 12.3958 21.8751C12.0167 21.8751 11.6375 21.7147 11.3604 21.4522C11.0979 21.1751 10.9375 20.7959 10.9375 20.4168C10.9375 20.0376 11.0979 19.6584 11.3604 19.3813C11.7688 18.973 12.4104 18.8418 12.95 19.0751C13.1396 19.148 13.3 19.2501 13.4313 19.3813C13.6938 19.6584 13.8542 20.0376 13.8542 20.4168C13.8542 20.7959 13.6938 21.1751 13.4313 21.4522ZM18.5354 26.5563C18.2583 26.8188 17.8792 26.9793 17.5 26.9793C17.1208 26.9793 16.7417 26.8188 16.4646 26.5563C16.2021 26.2793 16.0417 25.9001 16.0417 25.5209C16.0417 25.1418 16.2021 24.7626 16.4646 24.4855C17.0042 23.9459 17.9958 23.9459 18.5354 24.4855C18.7979 24.7626 18.9583 25.1418 18.9583 25.5209C18.9583 25.9001 18.7979 26.2793 18.5354 26.5563ZM18.5354 21.4522C18.4625 21.5105 18.3896 21.5688 18.3167 21.6272C18.2292 21.6855 18.1417 21.7293 18.0542 21.7584C17.9667 21.8022 17.8792 21.8313 17.7917 21.8459C17.6896 21.8605 17.6021 21.8751 17.5 21.8751C17.1208 21.8751 16.7417 21.7147 16.4646 21.4522C16.2021 21.1751 16.0417 20.7959 16.0417 20.4168C16.0417 20.0376 16.2021 19.6584 16.4646 19.3813C16.5958 19.2501 16.7563 19.148 16.9458 19.0751C17.4854 18.8418 18.1271 18.973 18.5354 19.3813C18.7979 19.6584 18.9583 20.0376 18.9583 20.4168C18.9583 20.7959 18.7979 21.1751 18.5354 21.4522ZM23.6396 26.5563C23.3625 26.8188 22.9833 26.9793 22.6042 26.9793C22.225 26.9793 21.8458 26.8188 21.5688 26.5563C21.3062 26.2793 21.1458 25.9001 21.1458 25.5209C21.1458 25.1418 21.3062 24.7626 21.5688 24.4855C22.1083 23.9459 23.1 23.9459 23.6396 24.4855C23.9021 24.7626 24.0625 25.1418 24.0625 25.5209C24.0625 25.9001 23.9021 26.2793 23.6396 26.5563ZM23.6396 21.4522C23.5667 21.5105 23.4937 21.5688 23.4208 21.6272C23.3333 21.6855 23.2458 21.7293 23.1583 21.7584C23.0708 21.8022 22.9833 21.8313 22.8958 21.8459C22.7938 21.8605 22.6917 21.8751 22.6042 21.8751C22.225 21.8751 21.8458 21.7147 21.5688 21.4522C21.3062 21.1751 21.1458 20.7959 21.1458 20.4168C21.1458 20.0376 21.3062 19.6584 21.5688 19.3813C21.7146 19.2501 21.8604 19.148 22.05 19.0751C22.3125 18.9584 22.6042 18.9293 22.8958 18.9876C22.9833 19.0022 23.0708 19.0313 23.1583 19.0751C23.2458 19.1043 23.3333 19.148 23.4208 19.2063C23.4937 19.2647 23.5667 19.323 23.6396 19.3813C23.9021 19.6584 24.0625 20.0376 24.0625 20.4168C24.0625 20.7959 23.9021 21.1751 23.6396 21.4522Z" fill="#1ABC9C"/>
</svg>
